<svg id="svg" xmlns="http://www.w3.org/2000/svg" xmlns:xlink="http://www.w3.org/1999/xlink" width="400" height="400" viewBox="0, 0, 400,400"><g id="svgg"><path id="path0" d="M128.261 111.644 C 120.032 112.807,113.198 117.601,110.578 124.049 C 109.141 127.585,109.226 122.551,109.298 200.600 L 109.364 271.909 110.045 273.950 C 116.350 292.839,142.718 292.263,148.531 273.109 C 148.946 271.741,148.975 269.090,149.094 220.202 L 149.220 168.736 194.701 223.166 C 239.967 277.339,241.494 279.110,244.967 281.472 C 261.437 292.671,283.489 288.180,287.799 272.749 C 288.477 270.322,288.479 128.486,287.801 126.050 C 282.855 108.288,257.993 106.084,250.316 122.727 C 248.470 126.731,248.644 121.316,248.505 178.918 L 248.379 230.466 203.142 176.324 C 177.814 146.011,157.117 121.448,156.115 120.512 C 149.331 114.177,137.346 110.361,128.261 111.644 " stroke="none" fill="#fbfbfb" fill-rule="evenodd"></path><path id="path1" d="M197.599 23.859 C 197.137 24.028,163.589 43.314,123.049 66.717 C 43.044 112.900,47.670 110.104,46.617 112.919 L 46.096 114.311 46.157 200.553 L 46.218 286.795 47.071 288.339 C 47.541 289.189,48.297 290.177,48.752 290.536 C 49.971 291.497,196.672 376.124,197.757 376.491 C 198.991 376.909,201.834 376.868,202.881 376.417 C 204.740 375.616,351.197 290.894,351.930 290.196 C 352.364 289.782,353.040 288.803,353.431 288.021 L 354.142 286.598 354.142 200.365 C 354.142 124.075,354.100 114.009,353.779 113.068 C 352.781 110.144,359.180 114.019,277.431 66.828 C 236.627 43.272,202.863 23.895,202.401 23.766 C 201.228 23.440,198.604 23.490,197.599 23.859 M138.195 111.888 C 144.926 113.039,151.363 116.047,156.021 120.217 C 156.955 121.054,176.497 144.242,202.881 175.820 L 248.139 229.989 248.268 179.040 C 248.389 131.072,248.422 127.993,248.827 126.411 C 253.952 106.415,282.357 106.241,287.938 126.170 L 288.475 128.091 288.449 199.400 C 288.418 279.314,288.589 271.972,286.665 276.009 C 280.339 289.280,260.001 291.867,244.627 281.356 C 241.154 278.981,240.636 278.380,194.231 222.821 L 149.220 168.931 149.095 220.540 C 148.979 268.547,148.942 272.243,148.556 273.498 C 142.590 292.896,115.213 292.623,109.669 273.109 L 109.124 271.188 109.052 201.200 C 109.003 153.178,109.061 130.516,109.234 128.993 C 110.642 116.673,123.109 109.309,138.195 111.888 " stroke="none" fill="#04943c" fill-rule="evenodd"></path><path id="path2" d="M109.122 199.760 C 109.122 238.253,109.150 254.001,109.184 234.754 C 109.218 215.507,109.218 184.013,109.184 164.766 C 109.150 145.519,109.122 161.267,109.122 199.760 M248.377 180.072 C 248.377 207.737,248.405 219.055,248.439 205.222 C 248.474 191.390,248.474 168.755,248.439 154.922 C 248.405 141.089,248.377 152.407,248.377 180.072 M288.473 185.594 C 288.473 216.164,288.501 228.670,288.535 213.385 C 288.570 198.100,288.570 173.088,288.535 157.803 C 288.501 142.518,288.473 155.024,288.473 185.594 M240.336 277.911 C 240.784 278.373,241.205 278.752,241.271 278.752 C 241.337 278.752,241.024 278.373,240.576 277.911 C 240.128 277.449,239.708 277.071,239.642 277.071 C 239.576 277.071,239.888 277.449,240.336 277.911 M282.938 281.212 L 282.233 281.993 283.013 281.288 C 283.741 280.630,283.904 280.432,283.718 280.432 C 283.677 280.432,283.326 280.783,282.938 281.212 " stroke="none" fill="#46b46d" fill-rule="evenodd"></path><path id="path3" d="M114.513 118.067 L 113.685 118.968 114.586 118.140 C 115.081 117.685,115.486 117.280,115.486 117.240 C 115.486 117.056,115.283 117.229,114.513 118.067 M143.206 282.173 L 142.257 283.193 143.277 282.244 C 144.226 281.362,144.408 281.152,144.226 281.152 C 144.187 281.152,143.728 281.612,143.206 282.173 M128.151 287.811 C 128.712 287.861,129.631 287.861,130.192 287.811 C 130.753 287.760,130.294 287.719,129.172 287.719 C 128.049 287.719,127.590 287.760,128.151 287.811 M264.761 287.808 C 265.187 287.861,265.943 287.862,266.441 287.810 C 266.939 287.758,266.591 287.715,265.666 287.714 C 264.742 287.713,264.334 287.755,264.761 287.808 " stroke="none" fill="#84cc9c" fill-rule="evenodd"></path><path id="path4" d="" stroke="none" fill="#74c494" fill-rule="evenodd"></path></g></svg>